<svg xmlns="http://www.w3.org/2000/svg" xmlns:xlink="http://www.w3.org/1999/xlink" width="500" zoomAndPan="magnify" viewBox="0 0 375 149.999998" height="200" preserveAspectRatio="xMidYMid meet" version="1.0"><defs><g/></defs><g fill="#ffffff" fill-opacity="1"><g transform="translate(9.483254, 92.960294)"><g><path d="M 48.015625 -0.828125 C 48.203125 -0.828125 48.296875 -0.6875 48.296875 -0.40625 C 48.296875 -0.132812 48.203125 0 48.015625 0 C 47.148438 0 45.804688 -0.046875 43.984375 -0.140625 C 42.160156 -0.234375 40.816406 -0.28125 39.953125 -0.28125 C 38.898438 -0.28125 37.597656 -0.234375 36.046875 -0.140625 C 34.585938 -0.046875 33.445312 0 32.625 0 C 32.445312 0 32.359375 -0.132812 32.359375 -0.40625 C 32.359375 -0.6875 32.445312 -0.828125 32.625 -0.828125 C 34.269531 -0.828125 35.445312 -0.972656 36.15625 -1.265625 C 36.863281 -1.554688 37.21875 -2.09375 37.21875 -2.875 C 37.21875 -3.5625 36.894531 -4.585938 36.25 -5.953125 L 30.375 -18.265625 L 14.015625 -18.265625 L 9.984375 -8.890625 C 9.390625 -7.523438 9.09375 -6.269531 9.09375 -5.125 C 9.09375 -2.257812 11.304688 -0.828125 15.734375 -0.828125 C 15.960938 -0.828125 16.078125 -0.6875 16.078125 -0.40625 C 16.078125 -0.132812 15.960938 0 15.734375 0 C 14.910156 0 13.722656 -0.046875 12.171875 -0.140625 C 10.441406 -0.234375 8.9375 -0.28125 7.65625 -0.28125 C 6.519531 -0.28125 5.128906 -0.234375 3.484375 -0.140625 C 2.117188 -0.046875 0.957031 0 0 0 C -0.226562 0 -0.34375 -0.132812 -0.34375 -0.40625 C -0.34375 -0.6875 -0.226562 -0.828125 0 -0.828125 C 1.28125 -0.828125 2.363281 -1.0625 3.25 -1.53125 C 4.132812 -2.007812 4.988281 -2.863281 5.8125 -4.09375 C 6.632812 -5.332031 7.546875 -7.140625 8.546875 -9.515625 L 22.984375 -43.296875 C 23.078125 -43.429688 23.257812 -43.5 23.53125 -43.5 C 23.800781 -43.5 23.960938 -43.429688 24.015625 -43.296875 L 40.296875 -9.375 C 41.835938 -6.039062 43.15625 -3.78125 44.25 -2.59375 C 45.351562 -1.414062 46.609375 -0.828125 48.015625 -0.828125 Z M 14.640625 -19.703125 L 29.6875 -19.703125 L 21.75 -36.25 Z M 14.640625 -19.703125 "/></g></g></g><g fill="#ffffff" fill-opacity="1"><g transform="translate(56.535738, 92.960294)"><g><path d="M 48.359375 -42.75 C 48.492188 -42.75 48.5625 -42.613281 48.5625 -42.34375 C 48.5625 -42.070312 48.492188 -41.9375 48.359375 -41.9375 C 46.492188 -41.9375 45.113281 -41.375 44.21875 -40.25 C 43.332031 -39.132812 42.890625 -37.394531 42.890625 -35.03125 L 42.890625 0.828125 C 42.890625 0.960938 42.773438 1.050781 42.546875 1.09375 C 42.316406 1.132812 42.15625 1.113281 42.0625 1.03125 L 10.1875 -37.140625 L 9.984375 -37.421875 L 9.984375 -7.65625 C 9.984375 -5.289062 10.414062 -3.5625 11.28125 -2.46875 C 12.15625 -1.375 13.503906 -0.828125 15.328125 -0.828125 C 15.460938 -0.828125 15.53125 -0.6875 15.53125 -0.40625 C 15.53125 -0.132812 15.460938 0 15.328125 0 C 14.234375 0 13.363281 -0.0195312 12.71875 -0.0625 L 9.234375 -0.140625 L 5.609375 -0.0625 C 4.921875 -0.0195312 3.941406 0 2.671875 0 C 2.578125 0 2.53125 -0.132812 2.53125 -0.40625 C 2.53125 -0.6875 2.578125 -0.828125 2.671875 -0.828125 C 4.628906 -0.828125 6.050781 -1.375 6.9375 -2.46875 C 7.832031 -3.5625 8.28125 -5.289062 8.28125 -7.65625 L 8.28125 -39.203125 C 6.40625 -41.023438 4.507812 -41.9375 2.59375 -41.9375 C 2.457031 -41.9375 2.390625 -42.070312 2.390625 -42.34375 C 2.390625 -42.613281 2.457031 -42.75 2.59375 -42.75 L 5.125 -42.6875 C 5.675781 -42.632812 6.453125 -42.609375 7.453125 -42.609375 L 10.671875 -42.6875 C 11.035156 -42.726562 11.515625 -42.75 12.109375 -42.75 C 12.472656 -42.75 12.734375 -42.671875 12.890625 -42.515625 C 13.054688 -42.359375 13.320312 -42.003906 13.6875 -41.453125 C 14.226562 -40.628906 14.773438 -39.878906 15.328125 -39.203125 L 41.1875 -7.859375 L 41.1875 -35.03125 C 41.1875 -37.394531 40.773438 -39.132812 39.953125 -40.25 C 39.128906 -41.375 37.78125 -41.9375 35.90625 -41.9375 C 35.820312 -41.9375 35.78125 -42.070312 35.78125 -42.34375 C 35.78125 -42.613281 35.820312 -42.75 35.90625 -42.75 L 38.578125 -42.6875 C 40.035156 -42.59375 41.195312 -42.546875 42.0625 -42.546875 C 42.9375 -42.546875 44.101562 -42.59375 45.5625 -42.6875 Z M 48.359375 -42.75 "/></g></g></g><g fill="#ffffff" fill-opacity="1"><g transform="translate(105.229602, 92.960294)"><g><path d="M 48.015625 -0.828125 C 48.203125 -0.828125 48.296875 -0.6875 48.296875 -0.40625 C 48.296875 -0.132812 48.203125 0 48.015625 0 C 47.148438 0 45.804688 -0.046875 43.984375 -0.140625 C 42.160156 -0.234375 40.816406 -0.28125 39.953125 -0.28125 C 38.898438 -0.28125 37.597656 -0.234375 36.046875 -0.140625 C 34.585938 -0.046875 33.445312 0 32.625 0 C 32.445312 0 32.359375 -0.132812 32.359375 -0.40625 C 32.359375 -0.6875 32.445312 -0.828125 32.625 -0.828125 C 34.269531 -0.828125 35.445312 -0.972656 36.15625 -1.265625 C 36.863281 -1.554688 37.21875 -2.09375 37.21875 -2.875 C 37.21875 -3.5625 36.894531 -4.585938 36.25 -5.953125 L 30.375 -18.265625 L 14.015625 -18.265625 L 9.984375 -8.890625 C 9.390625 -7.523438 9.09375 -6.269531 9.09375 -5.125 C 9.09375 -2.257812 11.304688 -0.828125 15.734375 -0.828125 C 15.960938 -0.828125 16.078125 -0.6875 16.078125 -0.40625 C 16.078125 -0.132812 15.960938 0 15.734375 0 C 14.910156 0 13.722656 -0.046875 12.171875 -0.140625 C 10.441406 -0.234375 8.9375 -0.28125 7.65625 -0.28125 C 6.519531 -0.28125 5.128906 -0.234375 3.484375 -0.140625 C 2.117188 -0.046875 0.957031 0 0 0 C -0.226562 0 -0.34375 -0.132812 -0.34375 -0.40625 C -0.34375 -0.6875 -0.226562 -0.828125 0 -0.828125 C 1.28125 -0.828125 2.363281 -1.0625 3.25 -1.53125 C 4.132812 -2.007812 4.988281 -2.863281 5.8125 -4.09375 C 6.632812 -5.332031 7.546875 -7.140625 8.546875 -9.515625 L 22.984375 -43.296875 C 23.078125 -43.429688 23.257812 -43.5 23.53125 -43.5 C 23.800781 -43.5 23.960938 -43.429688 24.015625 -43.296875 L 40.296875 -9.375 C 41.835938 -6.039062 43.15625 -3.78125 44.25 -2.59375 C 45.351562 -1.414062 46.609375 -0.828125 48.015625 -0.828125 Z M 14.640625 -19.703125 L 29.6875 -19.703125 L 21.75 -36.25 Z M 14.640625 -19.703125 "/></g></g></g><g fill="#ffffff" fill-opacity="1"><g transform="translate(152.282086, 92.960294)"><g/></g></g><g fill="#ffffff" fill-opacity="1"><g transform="translate(167.19099, 92.960294)"><g><path d="M 48.015625 -0.828125 C 48.203125 -0.828125 48.296875 -0.6875 48.296875 -0.40625 C 48.296875 -0.132812 48.203125 0 48.015625 0 C 47.148438 0 45.804688 -0.046875 43.984375 -0.140625 C 42.160156 -0.234375 40.816406 -0.28125 39.953125 -0.28125 C 38.898438 -0.28125 37.597656 -0.234375 36.046875 -0.140625 C 34.585938 -0.046875 33.445312 0 32.625 0 C 32.445312 0 32.359375 -0.132812 32.359375 -0.40625 C 32.359375 -0.6875 32.445312 -0.828125 32.625 -0.828125 C 34.269531 -0.828125 35.445312 -0.972656 36.15625 -1.265625 C 36.863281 -1.554688 37.21875 -2.09375 37.21875 -2.875 C 37.21875 -3.5625 36.894531 -4.585938 36.25 -5.953125 L 30.375 -18.265625 L 14.015625 -18.265625 L 9.984375 -8.890625 C 9.390625 -7.523438 9.09375 -6.269531 9.09375 -5.125 C 9.09375 -2.257812 11.304688 -0.828125 15.734375 -0.828125 C 15.960938 -0.828125 16.078125 -0.6875 16.078125 -0.40625 C 16.078125 -0.132812 15.960938 0 15.734375 0 C 14.910156 0 13.722656 -0.046875 12.171875 -0.140625 C 10.441406 -0.234375 8.9375 -0.28125 7.65625 -0.28125 C 6.519531 -0.28125 5.128906 -0.234375 3.484375 -0.140625 C 2.117188 -0.046875 0.957031 0 0 0 C -0.226562 0 -0.34375 -0.132812 -0.34375 -0.40625 C -0.34375 -0.6875 -0.226562 -0.828125 0 -0.828125 C 1.28125 -0.828125 2.363281 -1.0625 3.25 -1.53125 C 4.132812 -2.007812 4.988281 -2.863281 5.8125 -4.09375 C 6.632812 -5.332031 7.546875 -7.140625 8.546875 -9.515625 L 22.984375 -43.296875 C 23.078125 -43.429688 23.257812 -43.5 23.53125 -43.5 C 23.800781 -43.5 23.960938 -43.429688 24.015625 -43.296875 L 40.296875 -9.375 C 41.835938 -6.039062 43.15625 -3.78125 44.25 -2.59375 C 45.351562 -1.414062 46.609375 -0.828125 48.015625 -0.828125 Z M 14.640625 -19.703125 L 29.6875 -19.703125 L 21.75 -36.25 Z M 14.640625 -19.703125 "/></g></g></g><g fill="#ffffff" fill-opacity="1"><g transform="translate(214.243474, 92.960294)"><g><path d="M 13 -5.8125 C 13 -4.539062 13.125 -3.609375 13.375 -3.015625 C 13.625 -2.421875 14.101562 -2.019531 14.8125 -1.8125 C 15.519531 -1.601562 16.648438 -1.5 18.203125 -1.5 L 24.765625 -1.5 C 27.503906 -1.5 29.75 -2.332031 31.5 -4 C 33.257812 -5.664062 34.410156 -7.9375 34.953125 -10.8125 C 34.953125 -10.945312 35.078125 -11 35.328125 -10.96875 C 35.578125 -10.945312 35.703125 -10.867188 35.703125 -10.734375 C 35.296875 -6.859375 35.09375 -3.625 35.09375 -1.03125 C 35.09375 -0.664062 35.023438 -0.398438 34.890625 -0.234375 C 34.753906 -0.078125 34.476562 0 34.0625 0 L 2.328125 0 C 2.234375 0 2.1875 -0.132812 2.1875 -0.40625 C 2.1875 -0.6875 2.234375 -0.828125 2.328125 -0.828125 C 4.015625 -0.828125 5.242188 -0.9375 6.015625 -1.15625 C 6.796875 -1.382812 7.320312 -1.828125 7.59375 -2.484375 C 7.863281 -3.148438 8 -4.171875 8 -5.546875 L 8 -37.21875 C 8 -38.582031 7.863281 -39.582031 7.59375 -40.21875 C 7.320312 -40.863281 6.796875 -41.3125 6.015625 -41.5625 C 5.242188 -41.8125 4.015625 -41.9375 2.328125 -41.9375 C 2.234375 -41.9375 2.1875 -42.070312 2.1875 -42.34375 C 2.1875 -42.613281 2.234375 -42.75 2.328125 -42.75 L 5.75 -42.6875 C 7.664062 -42.59375 9.238281 -42.546875 10.46875 -42.546875 C 11.789062 -42.546875 13.410156 -42.59375 15.328125 -42.6875 L 18.671875 -42.75 C 18.765625 -42.75 18.8125 -42.613281 18.8125 -42.34375 C 18.8125 -42.070312 18.765625 -41.9375 18.671875 -41.9375 C 17.035156 -41.9375 15.816406 -41.8125 15.015625 -41.5625 C 14.210938 -41.3125 13.675781 -40.851562 13.40625 -40.1875 C 13.132812 -39.53125 13 -38.515625 13 -37.140625 Z M 13 -5.8125 "/></g></g></g><g fill="#ffffff" fill-opacity="1"><g transform="translate(249.737941, 92.960294)"><g><path d="M 45.703125 -42.75 C 45.835938 -42.75 45.90625 -42.613281 45.90625 -42.34375 C 45.90625 -42.070312 45.835938 -41.9375 45.703125 -41.9375 C 42.503906 -41.9375 40.109375 -39.972656 38.515625 -36.046875 L 24.28125 -0.0625 C 24.238281 0.113281 23.988281 0.203125 23.53125 0.203125 C 23.164062 0.203125 22.914062 0.113281 22.78125 -0.0625 L 5.75 -37.078125 C 4.925781 -38.804688 4.09375 -40.046875 3.25 -40.796875 C 2.40625 -41.554688 1.320312 -41.9375 0 -41.9375 C -0.132812 -41.9375 -0.203125 -42.070312 -0.203125 -42.34375 C -0.203125 -42.613281 -0.132812 -42.75 0 -42.75 L 2.328125 -42.6875 C 3.597656 -42.59375 4.671875 -42.546875 5.546875 -42.546875 C 7.734375 -42.546875 9.921875 -42.59375 12.109375 -42.6875 C 12.835938 -42.726562 13.796875 -42.75 14.984375 -42.75 C 15.117188 -42.75 15.1875 -42.613281 15.1875 -42.34375 C 15.1875 -42.070312 15.117188 -41.9375 14.984375 -41.9375 C 12.148438 -41.9375 10.734375 -41.09375 10.734375 -39.40625 C 10.734375 -38.757812 10.941406 -37.984375 11.359375 -37.078125 L 25.234375 -6.84375 L 36.9375 -36.390625 C 37.300781 -37.390625 37.484375 -38.210938 37.484375 -38.859375 C 37.484375 -39.898438 37.0625 -40.671875 36.21875 -41.171875 C 35.375 -41.679688 34.039062 -41.9375 32.21875 -41.9375 C 32.082031 -41.9375 32.015625 -42.070312 32.015625 -42.34375 C 32.015625 -42.613281 32.082031 -42.75 32.21875 -42.75 L 35.234375 -42.6875 C 36.867188 -42.59375 38.347656 -42.546875 39.671875 -42.546875 C 40.535156 -42.546875 41.609375 -42.59375 42.890625 -42.6875 Z M 45.703125 -42.75 "/></g></g></g><g fill="#ffffff" fill-opacity="1"><g transform="translate(294.123207, 92.960294)"><g><path d="M 32.765625 -10.265625 C 32.765625 -10.398438 32.898438 -10.453125 33.171875 -10.421875 C 33.453125 -10.398438 33.59375 -10.320312 33.59375 -10.1875 C 33.175781 -7.226562 32.96875 -4.175781 32.96875 -1.03125 C 32.96875 -0.664062 32.890625 -0.398438 32.734375 -0.234375 C 32.578125 -0.078125 32.289062 0 31.875 0 L 2.9375 0 C 2.84375 0 2.796875 -0.132812 2.796875 -0.40625 C 2.796875 -0.6875 2.84375 -0.828125 2.9375 -0.828125 C 4.625 -0.828125 5.851562 -0.9375 6.625 -1.15625 C 7.40625 -1.382812 7.929688 -1.828125 8.203125 -2.484375 C 8.484375 -3.148438 8.625 -4.171875 8.625 -5.546875 L 8.625 -37.21875 C 8.625 -38.582031 8.484375 -39.582031 8.203125 -40.21875 C 7.929688 -40.863281 7.40625 -41.3125 6.625 -41.5625 C 5.851562 -41.8125 4.625 -41.9375 2.9375 -41.9375 C 2.84375 -41.9375 2.796875 -42.070312 2.796875 -42.34375 C 2.796875 -42.613281 2.84375 -42.75 2.9375 -42.75 L 30.71875 -42.75 C 31.125 -42.75 31.328125 -42.546875 31.328125 -42.140625 L 31.46875 -33.59375 C 31.46875 -33.445312 31.34375 -33.375 31.09375 -33.375 C 30.84375 -33.375 30.71875 -33.445312 30.71875 -33.59375 C 30.4375 -36.050781 29.585938 -37.941406 28.171875 -39.265625 C 26.765625 -40.585938 24.921875 -41.25 22.640625 -41.25 L 18.875 -41.25 C 16.738281 -41.25 15.328125 -40.953125 14.640625 -40.359375 C 13.953125 -39.765625 13.609375 -38.625 13.609375 -36.9375 L 13.609375 -22.984375 L 21.484375 -22.984375 C 23.765625 -22.984375 25.414062 -23.367188 26.4375 -24.140625 C 27.46875 -24.921875 27.984375 -26.175781 27.984375 -27.90625 C 27.984375 -28 28.117188 -28.046875 28.390625 -28.046875 C 28.660156 -28.046875 28.796875 -28 28.796875 -27.90625 L 28.734375 -22.234375 C 28.734375 -20.910156 28.753906 -19.90625 28.796875 -19.21875 L 28.875 -15.796875 C 28.875 -15.710938 28.734375 -15.671875 28.453125 -15.671875 C 28.179688 -15.671875 28.046875 -15.710938 28.046875 -15.796875 C 28.046875 -17.804688 27.519531 -19.253906 26.46875 -20.140625 C 25.425781 -21.035156 23.71875 -21.484375 21.34375 -21.484375 L 13.609375 -21.484375 L 13.609375 -5.8125 C 13.609375 -4.625 13.742188 -3.734375 14.015625 -3.140625 C 14.296875 -2.546875 14.773438 -2.125 15.453125 -1.875 C 16.140625 -1.625 17.191406 -1.5 18.609375 -1.5 L 23.46875 -1.5 C 25.882812 -1.5 27.890625 -2.265625 29.484375 -3.796875 C 31.078125 -5.328125 32.171875 -7.484375 32.765625 -10.265625 Z M 32.765625 -10.265625 "/></g></g></g><g fill="#ffffff" fill-opacity="1"><g transform="translate(329.959623, 92.960294)"><g><path d="M 10.265625 -34.953125 C 10.265625 -33.222656 10.695312 -31.695312 11.5625 -30.375 C 12.425781 -29.050781 13.472656 -27.929688 14.703125 -27.015625 C 15.929688 -26.109375 17.664062 -24.992188 19.90625 -23.671875 C 22.226562 -22.253906 24.050781 -21.039062 25.375 -20.03125 C 26.695312 -19.03125 27.828125 -17.773438 28.765625 -16.265625 C 29.703125 -14.765625 30.171875 -12.988281 30.171875 -10.9375 C 30.171875 -8.707031 29.609375 -6.703125 28.484375 -4.921875 C 27.367188 -3.140625 25.738281 -1.734375 23.59375 -0.703125 C 21.457031 0.316406 18.925781 0.828125 16 0.828125 C 12.3125 0.828125 9.03125 0.00390625 6.15625 -1.640625 C 5.925781 -1.773438 5.765625 -1.929688 5.671875 -2.109375 C 5.585938 -2.296875 5.519531 -2.570312 5.46875 -2.9375 L 4.71875 -12.515625 C 4.675781 -12.703125 4.78125 -12.816406 5.03125 -12.859375 C 5.28125 -12.898438 5.425781 -12.832031 5.46875 -12.65625 C 6.382812 -9.28125 7.820312 -6.394531 9.78125 -4 C 11.738281 -1.601562 14.335938 -0.40625 17.578125 -0.40625 C 19.816406 -0.40625 21.6875 -1 23.1875 -2.1875 C 24.695312 -3.375 25.453125 -5.3125 25.453125 -8 C 25.453125 -10.050781 24.992188 -11.816406 24.078125 -13.296875 C 23.160156 -14.785156 22.050781 -16.039062 20.75 -17.0625 C 19.457031 -18.09375 17.691406 -19.269531 15.453125 -20.59375 C 13.222656 -22 11.488281 -23.171875 10.25 -24.109375 C 9.019531 -25.046875 7.972656 -26.234375 7.109375 -27.671875 C 6.242188 -29.109375 5.8125 -30.804688 5.8125 -32.765625 C 5.8125 -35.085938 6.425781 -37.054688 7.65625 -38.671875 C 8.894531 -40.296875 10.515625 -41.503906 12.515625 -42.296875 C 14.523438 -43.097656 16.644531 -43.5 18.875 -43.5 C 21.707031 -43.5 24.421875 -42.976562 27.015625 -41.9375 C 27.703125 -41.613281 28.046875 -41.203125 28.046875 -40.703125 L 28.453125 -32.5 C 28.453125 -32.3125 28.328125 -32.191406 28.078125 -32.140625 C 27.828125 -32.097656 27.679688 -32.171875 27.640625 -32.359375 C 27.179688 -34.773438 26.148438 -37.050781 24.546875 -39.1875 C 22.953125 -41.332031 20.65625 -42.40625 17.65625 -42.40625 C 15.226562 -42.40625 13.390625 -41.695312 12.140625 -40.28125 C 10.890625 -38.875 10.265625 -37.097656 10.265625 -34.953125 Z M 10.265625 -34.953125 "/></g></g></g></svg>