<svg xmlns="http://www.w3.org/2000/svg" xmlns:xlink="http://www.w3.org/1999/xlink" width="1920" zoomAndPan="magnify" viewBox="0 0 1440 74.999997" height="100" preserveAspectRatio="xMidYMid meet" version="1.2"><defs><clipPath id="cd4fb2bfca"><path d="M 1100.09375 33.703125 L 1227.59375 33.703125 L 1227.59375 75 L 1100.09375 75 Z M 1100.09375 33.703125 "/></clipPath><clipPath id="aa81c8362c"><path d="M 1303 0 L 1431 0 L 1431 43 L 1303 43 Z M 1303 0 "/></clipPath><clipPath id="d09a598cf8"><path d="M 1432.488281 40.835938 L 1305.03125 44.121094 L 1303.390625 -19.609375 L 1430.847656 -22.894531 Z M 1432.488281 40.835938 "/></clipPath><clipPath id="e95c4eda12"><path d="M 1432.488281 40.835938 L 1305.03125 44.121094 L 1303.390625 -19.609375 L 1430.847656 -22.894531 Z M 1432.488281 40.835938 "/></clipPath><clipPath id="11d10688fc"><path d="M 163.621094 33.703125 L 291 33.703125 L 291 75 L 163.621094 75 Z M 163.621094 33.703125 "/></clipPath><clipPath id="69947651a3"><path d="M 0 0 L 128 0 L 128 43 L 0 43 Z M 0 0 "/></clipPath><clipPath id="ab9ae38404"><path d="M 128.96875 40.835938 L 1.511719 44.121094 L -0.128906 -19.609375 L 127.328125 -22.894531 Z M 128.96875 40.835938 "/></clipPath><clipPath id="6ce6dac5fb"><path d="M 128.96875 40.835938 L 1.511719 44.121094 L -0.128906 -19.609375 L 127.328125 -22.894531 Z M 128.96875 40.835938 "/></clipPath></defs><g id="1e64579a38"><rect x="0" width="1440" y="0" height="74.999997" style="fill:#ffffff;fill-opacity:1;stroke:none;"/><rect x="0" width="1440" y="0" height="74.999997" style="fill:#000000;fill-opacity:1;stroke:none;"/><g style="fill:#ffffff;fill-opacity:1;"><g transform="translate(374.300476, 60.402281)"><path style="stroke:none" d=""/></g></g><g style="fill:#ffffff;fill-opacity:1;"><g transform="translate(386.007506, 60.402281)"><path style="stroke:none" d="M 1.90625 -42.953125 L 13.25 -42.953125 C 16.6875 -42.953125 19.132812 -41.84375 20.59375 -39.625 C 22.0625 -37.40625 22.796875 -34.164062 22.796875 -29.90625 C 22.796875 -25.632812 22.144531 -22.414062 20.84375 -20.25 C 19.550781 -18.082031 17.21875 -17 13.84375 -17 L 10.34375 -17 L 10.34375 0 L 1.90625 0 Z M 10.84375 -24.75 C 11.882812 -24.75 12.644531 -24.941406 13.125 -25.328125 C 13.601562 -25.710938 13.914062 -26.257812 14.0625 -26.96875 C 14.21875 -27.6875 14.296875 -28.710938 14.296875 -30.046875 C 14.296875 -31.847656 14.09375 -33.148438 13.6875 -33.953125 C 13.289062 -34.753906 12.492188 -35.15625 11.296875 -35.15625 L 10.34375 -35.15625 L 10.34375 -24.75 Z M 10.84375 -24.75 "/></g></g><g style="fill:#ffffff;fill-opacity:1;"><g transform="translate(409.603848, 60.402281)"><path style="stroke:none" d="M 1.75 -36.59375 L 10.5 -36.59375 L 10.5 -32.546875 C 10.9375 -33.984375 11.695312 -35.09375 12.78125 -35.875 C 13.863281 -36.65625 15.203125 -37.046875 16.796875 -37.046875 L 16.796875 -29.75 C 15.566406 -29.75 14.207031 -29.570312 12.71875 -29.21875 C 11.238281 -28.875 10.5 -28.46875 10.5 -28 L 10.5 0 L 1.75 0 Z M 1.75 -36.59375 "/></g></g><g style="fill:#ffffff;fill-opacity:1;"><g transform="translate(426.801181, 60.402281)"><path style="stroke:none" d="M 12.40625 0.40625 C 5.101562 0.40625 1.453125 -3.378906 1.453125 -10.953125 L 1.453125 -25.65625 C 1.453125 -29.113281 2.425781 -31.867188 4.375 -33.921875 C 6.320312 -35.972656 9 -37 12.40625 -37 C 15.800781 -37 18.472656 -35.972656 20.421875 -33.921875 C 22.367188 -31.867188 23.34375 -29.113281 23.34375 -25.65625 L 23.34375 -10.953125 C 23.34375 -3.378906 19.695312 0.40625 12.40625 0.40625 Z M 12.40625 -6.34375 C 13.101562 -6.34375 13.617188 -6.59375 13.953125 -7.09375 C 14.285156 -7.59375 14.453125 -8.28125 14.453125 -9.15625 L 14.453125 -27.046875 C 14.453125 -29.179688 13.769531 -30.25 12.40625 -30.25 C 11.03125 -30.25 10.34375 -29.179688 10.34375 -27.046875 L 10.34375 -9.15625 C 10.34375 -8.28125 10.507812 -7.59375 10.84375 -7.09375 C 11.175781 -6.59375 11.695312 -6.34375 12.40625 -6.34375 Z M 12.40625 -6.34375 "/></g></g><g style="fill:#ffffff;fill-opacity:1;"><g transform="translate(451.647332, 60.402281)"><path style="stroke:none" d="M 1.75 -36.59375 L 10.296875 -36.59375 L 10.296875 -32.34375 C 10.703125 -33.914062 11.382812 -35.082031 12.34375 -35.84375 C 13.3125 -36.613281 14.679688 -37 16.453125 -37 C 17.878906 -37 19.117188 -36.671875 20.171875 -36.015625 C 21.222656 -35.367188 21.96875 -34.476562 22.40625 -33.34375 C 23.132812 -34.613281 23.945312 -35.539062 24.84375 -36.125 C 25.75 -36.707031 27 -37 28.59375 -37 C 31.46875 -37 33.460938 -36.125 34.578125 -34.375 C 35.691406 -32.625 36.25 -30.082031 36.25 -26.75 L 36.15625 0 L 27.34375 0 L 27.34375 -26.90625 C 27.34375 -29.269531 26.742188 -30.453125 25.546875 -30.453125 C 24.710938 -30.453125 24.113281 -30.039062 23.75 -29.21875 C 23.382812 -28.40625 23.203125 -27.429688 23.203125 -26.296875 L 23.203125 0 L 14.453125 0 L 14.453125 -26.90625 C 14.453125 -27.9375 14.34375 -28.765625 14.125 -29.390625 C 13.90625 -30.023438 13.445312 -30.34375 12.75 -30.34375 C 11.851562 -30.34375 11.21875 -29.898438 10.84375 -29.015625 C 10.476562 -28.140625 10.296875 -27.082031 10.296875 -25.84375 L 10.296875 0 L 1.75 0 Z M 1.75 -36.59375 "/></g></g><g style="fill:#ffffff;fill-opacity:1;"><g transform="translate(489.541463, 60.402281)"><path style="stroke:none" d="M 12.40625 0.40625 C 5.101562 0.40625 1.453125 -3.378906 1.453125 -10.953125 L 1.453125 -25.65625 C 1.453125 -29.113281 2.425781 -31.867188 4.375 -33.921875 C 6.320312 -35.972656 9 -37 12.40625 -37 C 15.800781 -37 18.472656 -35.972656 20.421875 -33.921875 C 22.367188 -31.867188 23.34375 -29.113281 23.34375 -25.65625 L 23.34375 -10.953125 C 23.34375 -3.378906 19.695312 0.40625 12.40625 0.40625 Z M 12.40625 -6.34375 C 13.101562 -6.34375 13.617188 -6.59375 13.953125 -7.09375 C 14.285156 -7.59375 14.453125 -8.28125 14.453125 -9.15625 L 14.453125 -27.046875 C 14.453125 -29.179688 13.769531 -30.25 12.40625 -30.25 C 11.03125 -30.25 10.34375 -29.179688 10.34375 -27.046875 L 10.34375 -9.15625 C 10.34375 -8.28125 10.507812 -7.59375 10.84375 -7.09375 C 11.175781 -6.59375 11.695312 -6.34375 12.40625 -6.34375 Z M 12.40625 -6.34375 "/></g></g><g style="fill:#ffffff;fill-opacity:1;"><g transform="translate(514.387614, 60.402281)"><path style="stroke:none" d="M 14.34375 -22.09375 L 14.34375 -27.25 C 14.34375 -28.21875 14.207031 -28.957031 13.9375 -29.46875 C 13.675781 -29.988281 13.164062 -30.25 12.40625 -30.25 C 10.96875 -30.25 10.25 -29.234375 10.25 -27.203125 L 10.25 -9.453125 C 10.25 -8.617188 10.421875 -7.910156 10.765625 -7.328125 C 11.117188 -6.742188 11.644531 -6.453125 12.34375 -6.453125 C 13.050781 -6.453125 13.578125 -6.734375 13.921875 -7.296875 C 14.273438 -7.867188 14.4375 -8.601562 14.40625 -9.5 L 14.34375 -15.65625 L 23.25 -15.65625 L 23.25 -9.25 C 23.25 -6.550781 22.457031 -4.367188 20.875 -2.703125 C 19.289062 -1.035156 17.164062 -0.0351562 14.5 0.296875 C 16 1.660156 17.15625 3.148438 17.96875 4.765625 C 18.789062 6.390625 19.203125 7.953125 19.203125 9.453125 C 19.203125 11.210938 18.59375 12.644531 17.375 13.75 C 16.15625 14.851562 14.332031 15.40625 11.90625 15.40625 C 10.238281 15.40625 8.617188 15.085938 7.046875 14.453125 L 7.046875 9 C 8.078125 9.363281 9.046875 9.546875 9.953125 9.546875 C 11.847656 9.546875 12.796875 8.582031 12.796875 6.65625 C 12.796875 4.914062 12.015625 2.78125 10.453125 0.25 C 7.285156 -0.113281 4.992188 -1.300781 3.578125 -3.3125 C 2.160156 -5.332031 1.453125 -8.226562 1.453125 -12 L 1.453125 -23.296875 C 1.453125 -26.460938 1.789062 -29.035156 2.46875 -31.015625 C 3.15625 -33.003906 4.304688 -34.5 5.921875 -35.5 C 7.535156 -36.5 9.78125 -37 12.65625 -37 C 15.78125 -37 18.328125 -36.179688 20.296875 -34.546875 C 22.265625 -32.910156 23.25 -30.628906 23.25 -27.703125 L 23.25 -22.09375 Z M 14.34375 -22.09375 "/></g></g><g style="fill:#ffffff;fill-opacity:1;"><g transform="translate(538.933816, 60.402281)"><path style="stroke:none" d="M 12.40625 0.40625 C 5.101562 0.40625 1.453125 -3.378906 1.453125 -10.953125 L 1.453125 -25.65625 C 1.453125 -29.113281 2.425781 -31.867188 4.375 -33.921875 C 6.320312 -35.972656 9 -37 12.40625 -37 C 15.800781 -37 18.472656 -35.972656 20.421875 -33.921875 C 22.367188 -31.867188 23.34375 -29.113281 23.34375 -25.65625 L 23.34375 -10.953125 C 23.34375 -3.378906 19.695312 0.40625 12.40625 0.40625 Z M 12.40625 -6.34375 C 13.101562 -6.34375 13.617188 -6.59375 13.953125 -7.09375 C 14.285156 -7.59375 14.453125 -8.28125 14.453125 -9.15625 L 14.453125 -27.046875 C 14.453125 -29.179688 13.769531 -30.25 12.40625 -30.25 C 11.03125 -30.25 10.34375 -29.179688 10.34375 -27.046875 L 10.34375 -9.15625 C 10.34375 -8.28125 10.507812 -7.59375 10.84375 -7.09375 C 11.175781 -6.59375 11.695312 -6.34375 12.40625 -6.34375 Z M 16.453125 -39.75 C 15.523438 -39.75 14.664062 -39.863281 13.875 -40.09375 C 13.09375 -40.332031 12.15625 -40.671875 11.0625 -41.109375 C 10.519531 -41.335938 10 -41.535156 9.5 -41.703125 C 9 -41.867188 8.566406 -41.953125 8.203125 -41.953125 C 7.234375 -41.953125 6.484375 -41.40625 5.953125 -40.3125 L 2.3125 -42.203125 C 3.039062 -44.003906 3.828125 -45.363281 4.671875 -46.28125 C 5.523438 -47.195312 6.753906 -47.65625 8.359375 -47.65625 C 9.222656 -47.65625 10.003906 -47.554688 10.703125 -47.359375 C 11.398438 -47.160156 12.316406 -46.84375 13.453125 -46.40625 C 14.648438 -45.875 15.550781 -45.609375 16.15625 -45.609375 C 17.09375 -45.609375 17.859375 -46.207031 18.453125 -47.40625 L 22.5 -46.109375 C 22 -44.703125 21.523438 -43.570312 21.078125 -42.71875 C 20.628906 -41.875 20.03125 -41.164062 19.28125 -40.59375 C 18.53125 -40.03125 17.585938 -39.75 16.453125 -39.75 Z M 16.453125 -39.75 "/></g></g><g style="fill:#ffffff;fill-opacity:1;"><g transform="translate(563.779967, 60.402281)"><path style="stroke:none" d="M 12 0.40625 C 8.226562 0.40625 5.523438 -0.625 3.890625 -2.6875 C 2.265625 -4.757812 1.453125 -7.847656 1.453125 -11.953125 L 1.453125 -26.65625 C 1.453125 -30.019531 2.414062 -32.582031 4.34375 -34.34375 C 6.28125 -36.113281 8.984375 -37 12.453125 -37 C 19.484375 -37 23 -33.550781 23 -26.65625 L 23 -24 C 23 -21.332031 22.96875 -19.164062 22.90625 -17.5 L 10.203125 -17.5 L 10.203125 -10.40625 C 10.203125 -9.132812 10.332031 -8.140625 10.59375 -7.421875 C 10.863281 -6.703125 11.429688 -6.34375 12.296875 -6.34375 C 12.960938 -6.34375 13.4375 -6.539062 13.71875 -6.9375 C 14.007812 -7.34375 14.175781 -7.800781 14.21875 -8.3125 C 14.269531 -8.832031 14.296875 -9.59375 14.296875 -10.59375 L 14.296875 -14.15625 L 23 -14.15625 L 23 -12.046875 C 23 -7.785156 22.171875 -4.644531 20.515625 -2.625 C 18.867188 -0.601562 16.03125 0.40625 12 0.40625 Z M 14.296875 -21.84375 L 14.296875 -26.546875 C 14.296875 -29.179688 13.644531 -30.5 12.34375 -30.5 C 10.882812 -30.5 10.15625 -29.179688 10.15625 -26.546875 L 10.15625 -21.84375 Z M 14.296875 -21.84375 "/></g></g><g style="fill:#ffffff;fill-opacity:1;"><g transform="translate(588.176205, 60.402281)"><path style="stroke:none" d="M 11.796875 0.40625 C 4.566406 0.40625 0.953125 -3.257812 0.953125 -10.59375 L 1 -13.5 L 9.75 -13.5 L 9.796875 -9.203125 C 9.796875 -8.335938 9.960938 -7.675781 10.296875 -7.21875 C 10.628906 -6.769531 11.179688 -6.546875 11.953125 -6.546875 C 13.117188 -6.546875 13.703125 -7.5 13.703125 -9.40625 C 13.703125 -10.800781 13.425781 -11.898438 12.875 -12.703125 C 12.320312 -13.503906 11.445312 -14.351562 10.25 -15.25 L 5.59375 -18.84375 C 4 -20.082031 2.847656 -21.359375 2.140625 -22.671875 C 1.441406 -23.992188 1.09375 -25.851562 1.09375 -28.25 C 1.09375 -30.113281 1.582031 -31.703125 2.5625 -33.015625 C 3.550781 -34.335938 4.863281 -35.332031 6.5 -36 C 8.132812 -36.664062 9.953125 -37 11.953125 -37 C 19.046875 -37 22.59375 -33.46875 22.59375 -26.40625 L 22.59375 -25.703125 L 13.546875 -25.703125 L 13.546875 -27.09375 C 13.546875 -27.96875 13.40625 -28.710938 13.125 -29.328125 C 12.84375 -29.941406 12.367188 -30.25 11.703125 -30.25 C 11.097656 -30.25 10.632812 -30.070312 10.3125 -29.71875 C 10 -29.375 9.84375 -28.898438 9.84375 -28.296875 C 9.84375 -26.960938 10.363281 -25.929688 11.40625 -25.203125 L 16.796875 -21.25 C 18.734375 -19.8125 20.21875 -18.25 21.25 -16.5625 C 22.28125 -14.882812 22.796875 -12.765625 22.796875 -10.203125 C 22.796875 -6.796875 21.828125 -4.175781 19.890625 -2.34375 C 17.960938 -0.507812 15.265625 0.40625 11.796875 0.40625 Z M 11.796875 0.40625 "/></g></g><g style="fill:#ffffff;fill-opacity:1;"><g transform="translate(611.92251, 60.402281)"><path style="stroke:none" d=""/></g></g><g style="fill:#ffffff;fill-opacity:1;"><g transform="translate(623.620705, 60.402281)"><path style="stroke:none" d="M 1.75 -36.59375 L 10.65625 -36.59375 L 10.65625 -34.65625 C 11.914062 -36.21875 13.664062 -37 15.90625 -37 C 18.738281 -37 20.710938 -36.046875 21.828125 -34.140625 C 22.941406 -32.242188 23.5 -29.613281 23.5 -26.25 L 23.5 -12.703125 C 23.5 -9.835938 23.332031 -7.492188 23 -5.671875 C 22.664062 -3.859375 21.929688 -2.390625 20.796875 -1.265625 C 19.660156 -0.148438 17.945312 0.40625 15.65625 0.40625 C 13.445312 0.40625 11.78125 -0.210938 10.65625 -1.453125 L 10.65625 7.296875 L 1.75 7.296875 Z M 12.75 -6.40625 C 13.550781 -6.40625 14.066406 -6.769531 14.296875 -7.5 C 14.535156 -8.226562 14.65625 -9.296875 14.65625 -10.703125 L 14.65625 -26.25 C 14.65625 -27.519531 14.535156 -28.488281 14.296875 -29.15625 C 14.066406 -29.820312 13.535156 -30.15625 12.703125 -30.15625 C 11.335938 -30.15625 10.65625 -28.882812 10.65625 -26.34375 L 10.65625 -10.296875 C 10.65625 -9.066406 10.796875 -8.109375 11.078125 -7.421875 C 11.359375 -6.742188 11.914062 -6.40625 12.75 -6.40625 Z M 12.75 -6.40625 "/></g></g><g style="fill:#ffffff;fill-opacity:1;"><g transform="translate(648.616843, 60.402281)"><path style="stroke:none" d="M 12.40625 0.40625 C 5.101562 0.40625 1.453125 -3.378906 1.453125 -10.953125 L 1.453125 -25.65625 C 1.453125 -29.113281 2.425781 -31.867188 4.375 -33.921875 C 6.320312 -35.972656 9 -37 12.40625 -37 C 15.800781 -37 18.472656 -35.972656 20.421875 -33.921875 C 22.367188 -31.867188 23.34375 -29.113281 23.34375 -25.65625 L 23.34375 -10.953125 C 23.34375 -3.378906 19.695312 0.40625 12.40625 0.40625 Z M 12.40625 -6.34375 C 13.101562 -6.34375 13.617188 -6.59375 13.953125 -7.09375 C 14.285156 -7.59375 14.453125 -8.28125 14.453125 -9.15625 L 14.453125 -27.046875 C 14.453125 -29.179688 13.769531 -30.25 12.40625 -30.25 C 11.03125 -30.25 10.34375 -29.179688 10.34375 -27.046875 L 10.34375 -9.15625 C 10.34375 -8.28125 10.507812 -7.59375 10.84375 -7.09375 C 11.175781 -6.59375 11.695312 -6.34375 12.40625 -6.34375 Z M 12.40625 -6.34375 "/></g></g><g style="fill:#ffffff;fill-opacity:1;"><g transform="translate(673.462971, 60.402281)"><path style="stroke:none" d="M 1.75 -36.59375 L 10.5 -36.59375 L 10.5 -32.546875 C 10.9375 -33.984375 11.695312 -35.09375 12.78125 -35.875 C 13.863281 -36.65625 15.203125 -37.046875 16.796875 -37.046875 L 16.796875 -29.75 C 15.566406 -29.75 14.207031 -29.570312 12.71875 -29.21875 C 11.238281 -28.875 10.5 -28.46875 10.5 -28 L 10.5 0 L 1.75 0 Z M 1.75 -36.59375 "/></g></g><g style="fill:#ffffff;fill-opacity:1;"><g transform="translate(690.660327, 60.402281)"><path style="stroke:none" d=""/></g></g><g style="fill:#ffffff;fill-opacity:1;"><g transform="translate(702.3585, 60.402281)"><path style="stroke:none" d="M 9.296875 0.40625 C 6.992188 0.40625 5.410156 -0.078125 4.546875 -1.046875 C 3.679688 -2.015625 3.25 -3.566406 3.25 -5.703125 L 3.25 -28.546875 L 0.796875 -28.546875 L 0.796875 -35.203125 L 3.25 -35.203125 L 3.25 -42.953125 L 11.75 -42.953125 L 11.75 -35.203125 L 14.25 -35.203125 L 14.25 -28.546875 L 11.75 -28.546875 L 11.75 -8 C 11.75 -7.363281 11.796875 -6.894531 11.890625 -6.59375 C 11.992188 -6.300781 12.265625 -6.15625 12.703125 -6.15625 C 13.035156 -6.15625 13.347656 -6.171875 13.640625 -6.203125 C 13.941406 -6.234375 14.144531 -6.25 14.25 -6.25 L 14.25 -0.25 C 13.75 -0.113281 13.023438 0.0234375 12.078125 0.171875 C 11.128906 0.328125 10.203125 0.40625 9.296875 0.40625 Z M 9.296875 0.40625 "/></g></g><g style="fill:#ffffff;fill-opacity:1;"><g transform="translate(717.606126, 60.402281)"><path style="stroke:none" d="M 12 0.40625 C 8.226562 0.40625 5.523438 -0.625 3.890625 -2.6875 C 2.265625 -4.757812 1.453125 -7.847656 1.453125 -11.953125 L 1.453125 -26.65625 C 1.453125 -30.019531 2.414062 -32.582031 4.34375 -34.34375 C 6.28125 -36.113281 8.984375 -37 12.453125 -37 C 19.484375 -37 23 -33.550781 23 -26.65625 L 23 -24 C 23 -21.332031 22.96875 -19.164062 22.90625 -17.5 L 10.203125 -17.5 L 10.203125 -10.40625 C 10.203125 -9.132812 10.332031 -8.140625 10.59375 -7.421875 C 10.863281 -6.703125 11.429688 -6.34375 12.296875 -6.34375 C 12.960938 -6.34375 13.4375 -6.539062 13.71875 -6.9375 C 14.007812 -7.34375 14.175781 -7.800781 14.21875 -8.3125 C 14.269531 -8.832031 14.296875 -9.59375 14.296875 -10.59375 L 14.296875 -14.15625 L 23 -14.15625 L 23 -12.046875 C 23 -7.785156 22.171875 -4.644531 20.515625 -2.625 C 18.867188 -0.601562 16.03125 0.40625 12 0.40625 Z M 14.296875 -21.84375 L 14.296875 -26.546875 C 14.296875 -29.179688 13.644531 -30.5 12.34375 -30.5 C 10.882812 -30.5 10.15625 -29.179688 10.15625 -26.546875 L 10.15625 -21.84375 Z M 14.296875 -21.84375 "/></g></g><g style="fill:#ffffff;fill-opacity:1;"><g transform="translate(742.002364, 60.402281)"><path style="stroke:none" d="M 1.75 -36.59375 L 10.296875 -36.59375 L 10.296875 -32.34375 C 10.703125 -33.914062 11.382812 -35.082031 12.34375 -35.84375 C 13.3125 -36.613281 14.679688 -37 16.453125 -37 C 17.878906 -37 19.117188 -36.671875 20.171875 -36.015625 C 21.222656 -35.367188 21.96875 -34.476562 22.40625 -33.34375 C 23.132812 -34.613281 23.945312 -35.539062 24.84375 -36.125 C 25.75 -36.707031 27 -37 28.59375 -37 C 31.46875 -37 33.460938 -36.125 34.578125 -34.375 C 35.691406 -32.625 36.25 -30.082031 36.25 -26.75 L 36.15625 0 L 27.34375 0 L 27.34375 -26.90625 C 27.34375 -29.269531 26.742188 -30.453125 25.546875 -30.453125 C 24.710938 -30.453125 24.113281 -30.039062 23.75 -29.21875 C 23.382812 -28.40625 23.203125 -27.429688 23.203125 -26.296875 L 23.203125 0 L 14.453125 0 L 14.453125 -26.90625 C 14.453125 -27.9375 14.34375 -28.765625 14.125 -29.390625 C 13.90625 -30.023438 13.445312 -30.34375 12.75 -30.34375 C 11.851562 -30.34375 11.21875 -29.898438 10.84375 -29.015625 C 10.476562 -28.140625 10.296875 -27.082031 10.296875 -25.84375 L 10.296875 0 L 1.75 0 Z M 1.75 -36.59375 "/></g></g><g style="fill:#ffffff;fill-opacity:1;"><g transform="translate(779.896496, 60.402281)"><path style="stroke:none" d="M 1.75 -36.59375 L 10.65625 -36.59375 L 10.65625 -34.65625 C 11.914062 -36.21875 13.664062 -37 15.90625 -37 C 18.738281 -37 20.710938 -36.046875 21.828125 -34.140625 C 22.941406 -32.242188 23.5 -29.613281 23.5 -26.25 L 23.5 -12.703125 C 23.5 -9.835938 23.332031 -7.492188 23 -5.671875 C 22.664062 -3.859375 21.929688 -2.390625 20.796875 -1.265625 C 19.660156 -0.148438 17.945312 0.40625 15.65625 0.40625 C 13.445312 0.40625 11.78125 -0.210938 10.65625 -1.453125 L 10.65625 7.296875 L 1.75 7.296875 Z M 12.75 -6.40625 C 13.550781 -6.40625 14.066406 -6.769531 14.296875 -7.5 C 14.535156 -8.226562 14.65625 -9.296875 14.65625 -10.703125 L 14.65625 -26.25 C 14.65625 -27.519531 14.535156 -28.488281 14.296875 -29.15625 C 14.066406 -29.820312 13.535156 -30.15625 12.703125 -30.15625 C 11.335938 -30.15625 10.65625 -28.882812 10.65625 -26.34375 L 10.65625 -10.296875 C 10.65625 -9.066406 10.796875 -8.109375 11.078125 -7.421875 C 11.359375 -6.742188 11.914062 -6.40625 12.75 -6.40625 Z M 12.75 -6.40625 "/></g></g><g style="fill:#ffffff;fill-opacity:1;"><g transform="translate(804.892633, 60.402281)"><path style="stroke:none" d="M 12.40625 0.40625 C 5.101562 0.40625 1.453125 -3.378906 1.453125 -10.953125 L 1.453125 -25.65625 C 1.453125 -29.113281 2.425781 -31.867188 4.375 -33.921875 C 6.320312 -35.972656 9 -37 12.40625 -37 C 15.800781 -37 18.472656 -35.972656 20.421875 -33.921875 C 22.367188 -31.867188 23.34375 -29.113281 23.34375 -25.65625 L 23.34375 -10.953125 C 23.34375 -3.378906 19.695312 0.40625 12.40625 0.40625 Z M 12.40625 -6.34375 C 13.101562 -6.34375 13.617188 -6.59375 13.953125 -7.09375 C 14.285156 -7.59375 14.453125 -8.28125 14.453125 -9.15625 L 14.453125 -27.046875 C 14.453125 -29.179688 13.769531 -30.25 12.40625 -30.25 C 11.03125 -30.25 10.34375 -29.179688 10.34375 -27.046875 L 10.34375 -9.15625 C 10.34375 -8.28125 10.507812 -7.59375 10.84375 -7.09375 C 11.175781 -6.59375 11.695312 -6.34375 12.40625 -6.34375 Z M 12.40625 -6.34375 "/></g></g><g style="fill:#ffffff;fill-opacity:1;"><g transform="translate(829.738762, 60.402281)"><path style="stroke:none" d=""/></g></g><g style="fill:#ffffff;fill-opacity:1;"><g transform="translate(841.436957, 60.402281)"><path style="stroke:none" d="M 1.75 0 L 1.75 -43.203125 L 10.65625 -43.203125 L 10.65625 0 Z M 1.75 0 "/></g></g><g style="fill:#ffffff;fill-opacity:1;"><g transform="translate(853.835028, 60.402281)"><path style="stroke:none" d="M 1.703125 -39.046875 L 1.703125 -45.15625 L 10.453125 -45.15625 L 10.453125 -39.046875 Z M 1.703125 0 L 1.703125 -36.59375 L 10.453125 -36.59375 L 10.453125 0 Z M 1.703125 0 "/></g></g><g style="fill:#ffffff;fill-opacity:1;"><g transform="translate(865.983159, 60.402281)"><path style="stroke:none" d="M 1.75 -36.59375 L 10.296875 -36.59375 L 10.296875 -32.34375 C 10.703125 -33.914062 11.382812 -35.082031 12.34375 -35.84375 C 13.3125 -36.613281 14.679688 -37 16.453125 -37 C 17.878906 -37 19.117188 -36.671875 20.171875 -36.015625 C 21.222656 -35.367188 21.96875 -34.476562 22.40625 -33.34375 C 23.132812 -34.613281 23.945312 -35.539062 24.84375 -36.125 C 25.75 -36.707031 27 -37 28.59375 -37 C 31.46875 -37 33.460938 -36.125 34.578125 -34.375 C 35.691406 -32.625 36.25 -30.082031 36.25 -26.75 L 36.15625 0 L 27.34375 0 L 27.34375 -26.90625 C 27.34375 -29.269531 26.742188 -30.453125 25.546875 -30.453125 C 24.710938 -30.453125 24.113281 -30.039062 23.75 -29.21875 C 23.382812 -28.40625 23.203125 -27.429688 23.203125 -26.296875 L 23.203125 0 L 14.453125 0 L 14.453125 -26.90625 C 14.453125 -27.9375 14.34375 -28.765625 14.125 -29.390625 C 13.90625 -30.023438 13.445312 -30.34375 12.75 -30.34375 C 11.851562 -30.34375 11.21875 -29.898438 10.84375 -29.015625 C 10.476562 -28.140625 10.296875 -27.082031 10.296875 -25.84375 L 10.296875 0 L 1.75 0 Z M 1.75 -36.59375 "/></g></g><g style="fill:#ffffff;fill-opacity:1;"><g transform="translate(903.877291, 60.402281)"><path style="stroke:none" d="M 1.703125 -39.046875 L 1.703125 -45.15625 L 10.453125 -45.15625 L 10.453125 -39.046875 Z M 1.703125 0 L 1.703125 -36.59375 L 10.453125 -36.59375 L 10.453125 0 Z M 1.703125 0 "/></g></g><g style="fill:#ffffff;fill-opacity:1;"><g transform="translate(916.025422, 60.402281)"><path style="stroke:none" d="M 9.296875 0.40625 C 6.992188 0.40625 5.410156 -0.078125 4.546875 -1.046875 C 3.679688 -2.015625 3.25 -3.566406 3.25 -5.703125 L 3.25 -28.546875 L 0.796875 -28.546875 L 0.796875 -35.203125 L 3.25 -35.203125 L 3.25 -42.953125 L 11.75 -42.953125 L 11.75 -35.203125 L 14.25 -35.203125 L 14.25 -28.546875 L 11.75 -28.546875 L 11.75 -8 C 11.75 -7.363281 11.796875 -6.894531 11.890625 -6.59375 C 11.992188 -6.300781 12.265625 -6.15625 12.703125 -6.15625 C 13.035156 -6.15625 13.347656 -6.171875 13.640625 -6.203125 C 13.941406 -6.234375 14.144531 -6.25 14.25 -6.25 L 14.25 -0.25 C 13.75 -0.113281 13.023438 0.0234375 12.078125 0.171875 C 11.128906 0.328125 10.203125 0.40625 9.296875 0.40625 Z M 9.296875 0.40625 "/></g></g><g style="fill:#ffffff;fill-opacity:1;"><g transform="translate(931.273025, 60.402281)"><path style="stroke:none" d="M 8.40625 0.40625 C 5.570312 0.40625 3.628906 -0.535156 2.578125 -2.421875 C 1.523438 -4.304688 1 -7 1 -10.5 C 1 -13.363281 1.375 -15.5625 2.125 -17.09375 C 2.875 -18.632812 3.914062 -19.757812 5.25 -20.46875 C 6.582031 -21.1875 8.613281 -21.976562 11.34375 -22.84375 L 13.75 -23.65625 L 13.75 -27.40625 C 13.75 -28.363281 13.554688 -29.101562 13.171875 -29.625 C 12.785156 -30.144531 12.328125 -30.40625 11.796875 -30.40625 C 11.328125 -30.40625 10.914062 -30.1875 10.5625 -29.75 C 10.21875 -29.3125 10.046875 -28.726562 10.046875 -28 L 10.046875 -25.796875 L 1.546875 -25.796875 L 1.546875 -27 C 1.546875 -30.601562 2.382812 -33.171875 4.0625 -34.703125 C 5.75 -36.234375 8.492188 -37 12.296875 -37 C 15.328125 -37 17.789062 -36.207031 19.6875 -34.625 C 21.59375 -33.039062 22.546875 -30.800781 22.546875 -27.90625 L 22.546875 0 L 13.84375 0 L 13.84375 -4.34375 C 13.414062 -2.84375 12.722656 -1.675781 11.765625 -0.84375 C 10.816406 -0.0078125 9.695312 0.40625 8.40625 0.40625 Z M 11.84375 -6.40625 C 12.507812 -6.40625 12.984375 -6.675781 13.265625 -7.21875 C 13.554688 -7.769531 13.703125 -8.445312 13.703125 -9.25 L 13.703125 -19.453125 C 12.398438 -18.953125 11.441406 -18.316406 10.828125 -17.546875 C 10.210938 -16.785156 9.90625 -15.71875 9.90625 -14.34375 L 9.90625 -9.65625 C 9.90625 -7.488281 10.550781 -6.40625 11.84375 -6.40625 Z M 11.84375 -6.40625 "/></g></g><g style="fill:#ffffff;fill-opacity:1;"><g transform="translate(955.419324, 60.402281)"><path style="stroke:none" d="M 8.953125 0.40625 C 6.816406 0.40625 5.207031 -0.101562 4.125 -1.125 C 3.039062 -2.144531 2.320312 -3.492188 1.96875 -5.171875 C 1.625 -6.859375 1.453125 -9.019531 1.453125 -11.65625 L 1.546875 -28.15625 C 1.546875 -30.75 2.203125 -32.867188 3.515625 -34.515625 C 4.835938 -36.171875 6.695312 -37 9.09375 -37 C 11.46875 -37 13.238281 -36.21875 14.40625 -34.65625 L 14.40625 -43.203125 L 23.15625 -43.203125 L 23.15625 0 L 14.40625 0 L 14.40625 -3.90625 C 13.90625 -2.46875 13.226562 -1.390625 12.375 -0.671875 C 11.519531 0.046875 10.378906 0.40625 8.953125 0.40625 Z M 12.296875 -6.453125 C 13.160156 -6.453125 13.726562 -6.875 14 -7.71875 C 14.269531 -8.570312 14.40625 -9.71875 14.40625 -11.15625 L 14.40625 -26.453125 C 14.40625 -27.515625 14.253906 -28.410156 13.953125 -29.140625 C 13.648438 -29.878906 13.113281 -30.25 12.34375 -30.25 C 11.476562 -30.25 10.90625 -29.90625 10.625 -29.21875 C 10.34375 -28.539062 10.203125 -27.617188 10.203125 -26.453125 L 10.203125 -11.046875 C 10.203125 -7.984375 10.898438 -6.453125 12.296875 -6.453125 Z M 12.296875 -6.453125 "/></g></g><g style="fill:#ffffff;fill-opacity:1;"><g transform="translate(980.31544, 60.402281)"><path style="stroke:none" d="M 12.40625 0.40625 C 5.101562 0.40625 1.453125 -3.378906 1.453125 -10.953125 L 1.453125 -25.65625 C 1.453125 -29.113281 2.425781 -31.867188 4.375 -33.921875 C 6.320312 -35.972656 9 -37 12.40625 -37 C 15.800781 -37 18.472656 -35.972656 20.421875 -33.921875 C 22.367188 -31.867188 23.34375 -29.113281 23.34375 -25.65625 L 23.34375 -10.953125 C 23.34375 -3.378906 19.695312 0.40625 12.40625 0.40625 Z M 12.40625 -6.34375 C 13.101562 -6.34375 13.617188 -6.59375 13.953125 -7.09375 C 14.285156 -7.59375 14.453125 -8.28125 14.453125 -9.15625 L 14.453125 -27.046875 C 14.453125 -29.179688 13.769531 -30.25 12.40625 -30.25 C 11.03125 -30.25 10.34375 -29.179688 10.34375 -27.046875 L 10.34375 -9.15625 C 10.34375 -8.28125 10.507812 -7.59375 10.84375 -7.09375 C 11.175781 -6.59375 11.695312 -6.34375 12.40625 -6.34375 Z M 12.40625 -6.34375 "/></g></g><g style="fill:#ffffff;fill-opacity:1;"><g transform="translate(1005.161614, 60.402281)"><path style="stroke:none" d="M 3.046875 -11.703125 L 1.34375 -42.953125 L 10.09375 -42.953125 L 8.34375 -11.703125 Z M 1.34375 0 L 1.34375 -7.296875 L 10.09375 -7.296875 L 10.09375 0 Z M 1.34375 0 "/></g></g><g clip-rule="nonzero" clip-path="url(#cd4fb2bfca)"><path style=" stroke:none;fill-rule:evenodd;fill:#25c9ba;fill-opacity:1;" d="M 1128.765625 97.367188 L 1100.105469 97.367188 C 1100.105469 62.226562 1128.636719 33.695312 1163.78125 33.695312 C 1198.921875 33.695312 1227.457031 62.226562 1227.457031 97.367188 L 1198.796875 97.367188 C 1198.796875 78.042969 1183.105469 62.351562 1163.78125 62.351562 C 1144.457031 62.351562 1128.765625 78.042969 1128.765625 97.367188 "/></g><g clip-rule="nonzero" clip-path="url(#aa81c8362c)"><g clip-rule="nonzero" clip-path="url(#d09a598cf8)"><g clip-rule="nonzero" clip-path="url(#e95c4eda12)"><path style=" stroke:none;fill-rule:evenodd;fill:#ff601a;fill-opacity:1;" d="M 1402.1875 -22.070312 L 1430.835938 -22.808594 C 1431.742188 12.324219 1403.957031 41.582031 1368.824219 42.484375 C 1333.695312 43.390625 1304.4375 15.605469 1303.53125 -19.527344 L 1332.179688 -20.265625 C 1332.679688 -0.945312 1348.769531 14.332031 1368.085938 13.835938 C 1387.40625 13.339844 1402.683594 -2.75 1402.1875 -22.070312 "/></g></g></g><g clip-rule="nonzero" clip-path="url(#11d10688fc)"><path style=" stroke:none;fill-rule:evenodd;fill:#ff601a;fill-opacity:1;" d="M 192.292969 97.367188 L 163.632812 97.367188 C 163.632812 62.226562 192.164062 33.695312 227.308594 33.695312 C 262.449219 33.695312 290.980469 62.226562 290.980469 97.367188 L 262.320312 97.367188 C 262.320312 78.042969 246.632812 62.351562 227.308594 62.351562 C 207.980469 62.351562 192.292969 78.042969 192.292969 97.367188 "/></g><g clip-rule="nonzero" clip-path="url(#69947651a3)"><g clip-rule="nonzero" clip-path="url(#ab9ae38404)"><g clip-rule="nonzero" clip-path="url(#6ce6dac5fb)"><path style=" stroke:none;fill-rule:evenodd;fill:#25c9ba;fill-opacity:1;" d="M 98.667969 -22.070312 L 127.316406 -22.808594 C 128.222656 12.324219 100.4375 41.582031 65.304688 42.484375 C 30.175781 43.390625 0.917969 15.605469 0.0117188 -19.527344 L 28.664062 -20.265625 C 29.160156 -0.945312 45.25 14.332031 64.566406 13.835938 C 83.886719 13.339844 99.164062 -2.75 98.667969 -22.070312 "/></g></g></g></g></svg>